<svg id="Capa_1" data-name="Capa 1" xmlns="http://www.w3.org/2000/svg" viewBox="0 0 520.06 72.19" aria-label="Implemental Systems">
  <defs>
    <style>
      .cls-1 { fill: #fc010e; }
      .cls-2 { fill: #fff; }
    </style>
  </defs>
  <path class="cls-1" d="M459.75,420.42a36.1,36.1,0,1,1,36.1-36.1A36.14,36.14,0,0,1,459.75,420.42Z" transform="translate(-423.66 -348.23)"/>
  <path d="M507.65,367.56h6.29V395.4h-6.29Z" transform="translate(-423.66 -348.23)"/>
  <path d="M553.92,376a8.3,8.3,0,0,1,2.09,6V395.4h-6.08V383.74a4.46,4.46,0,0,0-1.12-3.22,4,4,0,0,0-3-1.15,4.4,4.4,0,0,0-3.46,1.55,5.85,5.85,0,0,0-1.27,3.9V395.4H535V383.74a4.5,4.5,0,0,0-1.09-3.2,3.91,3.91,0,0,0-3-1.17,4.46,4.46,0,0,0-3.48,1.55,5.76,5.76,0,0,0-1.3,3.9V395.4H520V374h6.12v3.7c1.49-2.57,3.9-3.89,7.24-3.94a7.87,7.87,0,0,1,4.58,1.29,7.05,7.05,0,0,1,2.66,3.64,7.79,7.79,0,0,1,3-3.66,9,9,0,0,1,4.72-1.27A7.37,7.37,0,0,1,553.92,376Z" transform="translate(-423.66 -348.23)"/>
  <path d="M579.65,375.17a9.18,9.18,0,0,1,3.54,3.88,12.66,12.66,0,0,1,1.26,5.77,12.45,12.45,0,0,1-1.24,5.66,9.08,9.08,0,0,1-3.48,3.8,9.93,9.93,0,0,1-5.23,1.35,8.79,8.79,0,0,1-4-.85,8,8,0,0,1-2.93-2.49v10.82H561.5V374h6.12v3.14a7.69,7.69,0,0,1,2.89-2.49,8.73,8.73,0,0,1,3.87-.85A10.07,10.07,0,0,1,579.65,375.17Zm-2.88,13.72a6.89,6.89,0,0,0,0-8.51,4.87,4.87,0,0,0-3.82-1.65,5,5,0,0,0-3.84,1.65,6.85,6.85,0,0,0,0,8.53,5,5,0,0,0,3.84,1.63A4.87,4.87,0,0,0,576.77,388.89Z" transform="translate(-423.66 -348.23)"/>
  <path d="M588.7,365.89h6.13V395.4H588.7Z" transform="translate(-423.66 -348.23)"/>
  <path d="M618,376.78q2.68,3,2.69,8.31c0,.64,0,1.13,0,1.48H605.28a5.43,5.43,0,0,0,5.53,4.29,7.45,7.45,0,0,0,2.91-.58,7.53,7.53,0,0,0,2.5-1.69l3.22,3.27a10.74,10.74,0,0,1-4,2.8,13.37,13.37,0,0,1-5.19,1,12.34,12.34,0,0,1-5.91-1.35,9.51,9.51,0,0,1-3.9-3.82,12.52,12.52,0,0,1,0-11.43,9.79,9.79,0,0,1,3.9-3.86,11.78,11.78,0,0,1,5.73-1.37Q615.3,373.8,618,376.78ZM614.91,383a4.86,4.86,0,0,0-1.35-3.38,5.05,5.05,0,0,0-6.7,0,5.75,5.75,0,0,0-1.69,3.4Z" transform="translate(-423.66 -348.23)"/>
  <path d="M658.63,376a8.3,8.3,0,0,1,2.09,6V395.4h-6.08V383.74a4.41,4.41,0,0,0-1.12-3.22,4,4,0,0,0-3-1.15,4.4,4.4,0,0,0-3.46,1.55,5.85,5.85,0,0,0-1.27,3.9V395.4h-6.09V383.74a4.5,4.5,0,0,0-1.09-3.2,3.91,3.91,0,0,0-3-1.17,4.46,4.46,0,0,0-3.48,1.55,5.81,5.81,0,0,0-1.29,3.9V395.4h-6.13V374h6.13v3.7c1.48-2.57,3.89-3.89,7.23-3.94a7.87,7.87,0,0,1,4.58,1.29,7.05,7.05,0,0,1,2.66,3.64,7.75,7.75,0,0,1,3-3.66,9,9,0,0,1,4.71-1.27A7.37,7.37,0,0,1,658.63,376Z" transform="translate(-423.66 -348.23)"/>
  <path d="M683.05,376.78q2.69,3,2.69,8.31c0,.64,0,1.13,0,1.48H670.35a5.53,5.53,0,0,0,2,3.16,5.65,5.65,0,0,0,3.53,1.13,7.57,7.57,0,0,0,5.41-2.27l3.23,3.27a10.86,10.86,0,0,1-4,2.8,13.3,13.3,0,0,1-5.19,1,12.36,12.36,0,0,1-5.91-1.35,9.51,9.51,0,0,1-3.9-3.82,11.53,11.53,0,0,1-1.37-5.68,11.65,11.65,0,0,1,1.39-5.75,9.79,9.79,0,0,1,3.9-3.86,11.78,11.78,0,0,1,5.73-1.37C678.65,373.8,681.26,374.79,683.05,376.78ZM680,383a4.81,4.81,0,0,0-1.35-3.38,4.58,4.58,0,0,0-3.38-1.28,4.64,4.64,0,0,0-3.32,1.26,5.81,5.81,0,0,0-1.69,3.4Z" transform="translate(-423.66 -348.23)"/>
  <path d="M709,376a8.25,8.25,0,0,1,2.13,6V395.4H705V383.74a4.39,4.39,0,0,0-1.14-3.2,4.08,4.08,0,0,0-3.08-1.17,4.61,4.61,0,0,0-3.58,1.57,5.84,5.84,0,0,0-1.31,3.92V395.4h-6.13V374h6.13v3.74q2.22-3.9,7.4-4A7.5,7.5,0,0,1,709,376Z" transform="translate(-423.66 -348.23)"/>
  <path d="M729.64,394.2a10.06,10.06,0,0,1-2.64,1.1,11.65,11.65,0,0,1-2.93.37,6.92,6.92,0,0,1-4.85-1.71,6.32,6.32,0,0,1-1.87-4.89v-9.9h-3V375h3v-5.88h6.09V375h5.81v4.26h-5.81V388q0,2.46,1.95,2.46a6.88,6.88,0,0,0,3-.79Z" transform="translate(-423.66 -348.23)"/>
  <path d="M745.75,395.4v-2.51A6.92,6.92,0,0,1,743,395a10.11,10.11,0,0,1-3.94.71,7.56,7.56,0,0,1-5.37-1.85,6.27,6.27,0,0,1-2-4.83,5.68,5.68,0,0,1,2.13-4.71,9.65,9.65,0,0,1,6-1.73h5.89v-.4a3.24,3.24,0,0,0-1.13-2.64,5.09,5.09,0,0,0-3.32-.94,13.34,13.34,0,0,0-6.37,1.87L733,376.23a25,25,0,0,1,4.78-1.87,18.72,18.72,0,0,1,4.89-.6,10,10,0,0,1,6.66,2,7.15,7.15,0,0,1,2.41,5.65l0,14Zm-1.71-5a3.53,3.53,0,0,0,1.67-2.3v-1.91H740.9a4.85,4.85,0,0,0-2.65.57,2.08,2.08,0,0,0-.85,1.85,2.42,2.42,0,0,0,.89,2,3.75,3.75,0,0,0,2.45.74A5.88,5.88,0,0,0,744,390.38Z" transform="translate(-423.66 -348.23)"/>
  <path d="M757.24,365.89h6.13V395.4h-6.13Z" transform="translate(-423.66 -348.23)"/>
  <path d="M792.7,373.22a14.05,14.05,0,0,0-4.12-.77A4.88,4.88,0,0,0,786,373a2,2,0,0,0-1,1.75,2.45,2.45,0,0,0,1.37,2.25,20.76,20.76,0,0,0,4.24,1.61,37.9,37.9,0,0,1,4.71,1.67,8.32,8.32,0,0,1,3.16,2.51,6.89,6.89,0,0,1,1.32,4.41,7.6,7.6,0,0,1-1.42,4.6,8.71,8.71,0,0,1-3.87,2.92,15,15,0,0,1-5.61,1,19,19,0,0,1-6.64-1.19,17.93,17.93,0,0,1-5.65-3.26l2.5-5.13a17.11,17.11,0,0,0,4.86,3.06,13,13,0,0,0,5,1.15,5.49,5.49,0,0,0,3-.71,2.51,2.51,0,0,0,.36-3.84,5.72,5.72,0,0,0-1.87-1.13c-.76-.29-1.8-.63-3.12-1a35.84,35.84,0,0,1-4.68-1.59,8.36,8.36,0,0,1-3.12-2.42,6.76,6.76,0,0,1-1.31-4.34,7.35,7.35,0,0,1,1.35-4.39,8.6,8.6,0,0,1,3.78-2.91,14.69,14.69,0,0,1,5.65-1,19.7,19.7,0,0,1,5.64.83,19.28,19.28,0,0,1,4.94,2.23l-2.43,5.21A21.56,21.56,0,0,0,792.7,373.22Z" transform="translate(-423.66 -348.23)"/>
  <path d="M806.68,403.39a9.22,9.22,0,0,1-3.11-.5,9,9,0,0,1-2.7-1.57l2.58-4.41a4.38,4.38,0,0,0,2.79,1.15,2.93,2.93,0,0,0,2.82-1.91l.6-1.19-8.87-21h6.32l5.61,14.71,5-14.71h6.13l-9.39,23.78C813,401.52,810.41,403.39,806.68,403.39Z" transform="translate(-423.66 -348.23)"/>
  <path d="M836.3,378.75a10.29,10.29,0,0,0-3.06-.54,3.57,3.57,0,0,0-1.79.4,1.3,1.3,0,0,0-.67,1.2,1.48,1.48,0,0,0,.91,1.35,17.54,17.54,0,0,0,3,1.07,32.13,32.13,0,0,1,3.74,1.33,7.08,7.08,0,0,1,2.55,1.95,5.18,5.18,0,0,1,1.07,3.4,5.76,5.76,0,0,1-2.44,4.95,10.45,10.45,0,0,1-6.27,1.77,16.4,16.4,0,0,1-5.05-.77,12.89,12.89,0,0,1-4.21-2.21l2-4.13a12.66,12.66,0,0,0,3.64,2,11.5,11.5,0,0,0,3.8.7,4,4,0,0,0,2-.42,1.35,1.35,0,0,0,.74-1.25,1.59,1.59,0,0,0-.94-1.43,15.2,15.2,0,0,0-3-1.12,28.8,28.8,0,0,1-3.64-1.27,6.47,6.47,0,0,1-2.49-1.93,5.2,5.2,0,0,1-1-3.36,5.74,5.74,0,0,1,2.39-4.93,9.91,9.91,0,0,1,6-1.75,16.14,16.14,0,0,1,4.38.62,14.57,14.57,0,0,1,4,1.77l-2.11,4.17A18,18,0,0,0,836.3,378.75Z" transform="translate(-423.66 -348.23)"/>
  <path d="M859.37,394.2a10.35,10.35,0,0,1-2.64,1.1,11.71,11.71,0,0,1-2.93.37A6.91,6.91,0,0,1,849,394a6.28,6.28,0,0,1-1.87-4.89v-9.9h-3V375h3v-5.88h6.09V375H859v4.26h-5.8V388c0,1.64.65,2.46,1.94,2.46a6.88,6.88,0,0,0,3-.79Z" transform="translate(-423.66 -348.23)"/>
  <path d="M880,376.78q2.68,3,2.69,8.31c0,.64,0,1.13,0,1.48H867.25a5.57,5.57,0,0,0,2,3.16,5.66,5.66,0,0,0,3.54,1.13,7.45,7.45,0,0,0,2.91-.58,7.53,7.53,0,0,0,2.5-1.69l3.22,3.27a10.74,10.74,0,0,1-3.95,2.8,13.3,13.3,0,0,1-5.19,1,12.34,12.34,0,0,1-5.91-1.35,9.51,9.51,0,0,1-3.9-3.82,12.52,12.52,0,0,1,0-11.43,9.79,9.79,0,0,1,3.9-3.86,11.78,11.78,0,0,1,5.73-1.37Q877.26,373.8,880,376.78ZM876.87,383a4.81,4.81,0,0,0-1.35-3.38,5.05,5.05,0,0,0-6.7,0,5.75,5.75,0,0,0-1.69,3.4Z" transform="translate(-423.66 -348.23)"/>
  <path d="M920.6,376a8.34,8.34,0,0,1,2.08,6V395.4H916.6V383.74a4.45,4.45,0,0,0-1.11-3.22,4,4,0,0,0-3-1.15,4.4,4.4,0,0,0-3.46,1.55,5.85,5.85,0,0,0-1.27,3.9V395.4h-6.08V383.74a4.5,4.5,0,0,0-1.1-3.2,3.91,3.91,0,0,0-3-1.17,4.46,4.46,0,0,0-3.48,1.55,5.81,5.81,0,0,0-1.29,3.9V395.4h-6.13V374h6.13v3.7c1.48-2.57,3.89-3.89,7.23-3.94a7.87,7.87,0,0,1,4.58,1.29,7.05,7.05,0,0,1,2.66,3.64,7.79,7.79,0,0,1,3-3.66,9,9,0,0,1,4.72-1.27A7.4,7.4,0,0,1,920.6,376Z" transform="translate(-423.66 -348.23)"/>
  <path d="M938,378.75a10.29,10.29,0,0,0-3.06-.54,3.57,3.57,0,0,0-1.79.4,1.3,1.3,0,0,0-.67,1.2,1.48,1.48,0,0,0,.91,1.35,17.54,17.54,0,0,0,3,1.07,32.81,32.81,0,0,1,3.74,1.33,7.08,7.08,0,0,1,2.55,1.95,5.18,5.18,0,0,1,1.07,3.4,5.76,5.76,0,0,1-2.44,4.95,10.45,10.45,0,0,1-6.27,1.77,16.4,16.4,0,0,1-5-.77,13,13,0,0,1-4.22-2.21l2-4.13a12.66,12.66,0,0,0,3.64,2,11.5,11.5,0,0,0,3.8.7,4,4,0,0,0,2-.42,1.34,1.34,0,0,0,.73-1.25,1.58,1.58,0,0,0-.93-1.43,15.2,15.2,0,0,0-3-1.12,28.8,28.8,0,0,1-3.64-1.27,6.47,6.47,0,0,1-2.49-1.93,5.2,5.2,0,0,1-1-3.36,5.76,5.76,0,0,1,2.38-4.93,10,10,0,0,1,6.05-1.75,16,16,0,0,1,4.37.62,14.5,14.5,0,0,1,4,1.77l-2.11,4.17A18,18,0,0,0,938,378.75Z" transform="translate(-423.66 -348.23)"/>
  <path class="cls-2" d="M465.3,369.89a5.44,5.44,0,0,1,1.52-2.53,6.64,6.64,0,0,1,2.78-1.47,7.38,7.38,0,0,1,3.22-.23l.27.08h.15l.2,0,.43.09c.3.06.6.16.9.24a18.92,18.92,0,0,1,1.81.67,18,18,0,0,1,1.76.87l.86.5.83.57a19.61,19.61,0,0,1,3.09,2.7,21.12,21.12,0,0,1,1.38,1.6,10.68,10.68,0,0,1,.63.87l.63.88c-.19-.69-.34-1.41-.59-2.11a19,19,0,0,0-.85-2.06c-.16-.33-.31-.68-.5-1l-.58-1c-.19-.33-.42-.63-.64-.95s-.44-.63-.69-.92a19.11,19.11,0,0,0-3.34-3.26,18.69,18.69,0,0,0-2-1.36c-.35-.2-.7-.4-1.08-.58a5,5,0,0,0-.57-.27l-.31-.14-.37-.13.27.08a11,11,0,0,0-11.64,1.69,11.17,11.17,0,0,0-3.55,5.23,12.45,12.45,0,0,0-.57,3,12.18,12.18,0,0,0,.17,3.15,10.87,10.87,0,0,0,1.13,3.1,12.27,12.27,0,0,0,1.9,2.55,17.46,17.46,0,0,0,4.63,3.31,38.33,38.33,0,0,0,4.72,2l1.07.39c.33.11.58.24.87.36s.53.27.8.4.5.3.74.47a8.25,8.25,0,0,1,3.44,5.7,8.65,8.65,0,0,1,.09.89,8.23,8.23,0,0,1,0,.85,6.4,6.4,0,0,1-.27,1.55,10.39,10.39,0,0,1-.67,1.61,14.79,14.79,0,0,1-1,1.58,16.08,16.08,0,0,1-2.72,2.82,19.77,19.77,0,0,1-3.38,2.23,23.54,23.54,0,0,1-7.88,2.47c-.69.09-1.38.15-2.08.19a20.06,20.06,0,0,1-2,0,17.65,17.65,0,0,1-3.93-.66,24.68,24.68,0,0,1-7.49-3.56,21.33,21.33,0,0,1-9.42-17.38l0-.52,0-.53,0-1.05.09-1c0-.17,0-.35,0-.52l.08-.51a21.37,21.37,0,0,1,.94-4,20,20,0,0,1,1.68-3.71,21.9,21.9,0,0,1,5.38-6.15c.52-.41,1.06-.8,1.62-1.18l.35-.22.41-.26c.28-.2.73-.29.73.37v21s0,.08,0,.12v1.33a9.39,9.39,0,0,0,2.79,2.37A10.42,10.42,0,0,0,455.1,392v-9.51h0V360a3,3,0,0,0-.13-.88,3.12,3.12,0,0,0-3.89-2.09h0l-.4.13-.33.11-.64.24c-.41.16-.81.34-1.22.52-.79.35-1.57.75-2.33,1.16a32,32,0,0,0-4.33,2.89A28.1,28.1,0,0,0,434.9,370a26.41,26.41,0,0,0-2.19,4.85A27.52,27.52,0,0,0,431.5,380l-.09.64c0,.22,0,.44-.06.65l-.11,1.3,0,1.3,0,.65,0,.65a28.12,28.12,0,0,0,.59,5.23,26.79,26.79,0,0,0,1.57,5.07,27.26,27.26,0,0,0,2.55,4.65,29.12,29.12,0,0,0,7.38,7.43A31,31,0,0,0,452.7,412a24.24,24.24,0,0,0,5.32.89c.46,0,.94,0,1.36,0s.86,0,1.3,0q1.29-.06,2.58-.24a29.87,29.87,0,0,0,10-3.13,26.28,26.28,0,0,0,4.44-2.94,22.46,22.46,0,0,0,3.78-3.94,16.91,16.91,0,0,0,2.62-5.11,12.72,12.72,0,0,0,.53-3.07,12.4,12.4,0,0,0,0-1.5,14.06,14.06,0,0,0-.15-1.44,15.11,15.11,0,0,0-.7-2.86,14.38,14.38,0,0,0-5.34-7.05c-.4-.29-.82-.54-1.24-.79s-.86-.47-1.3-.66-.89-.39-1.3-.54l-1.14-.4a30.88,30.88,0,0,1-3.95-1.64,11.63,11.63,0,0,1-3-2.1,4.85,4.85,0,0,1-1.37-2.5,6.12,6.12,0,0,1-.08-1.53A6.52,6.52,0,0,1,465.3,369.89Z" transform="translate(-423.66 -348.23)"/>
</svg>
