<svg xmlns="http://www.w3.org/2000/svg" width="410" height="404" viewBox="0 0 410 404" fill="none">
  <g clip-path="url(#clip0_17_39)">
    <path d="M399.641 59.5246L215.643 388.545C210.943 397.226 198.097 397.201 193.445 388.498L10.5817 59.5513C6.04662 51.0417 12.836 40.7921 22.4336 41.9179L205.223 63.8782C206.398 64.0187 207.585 64.0183 208.76 63.877L387.539 41.9518C397.12 40.8111 403.944 50.98 399.455 59.5013L399.641 59.5246Z" fill="url(#paint0_linear_17_39)"/>
    <path d="M292.965 1.5744L156.801 21.406C154.563 21.7375 152.619 23.0659 151.552 25.0547L80.3972 159.042C78.105 163.47 81.795 168.72 86.7051 168.048L123.646 162.877C128.585 162.202 132.908 166.539 131.568 171.391L112.677 240.816C111.312 245.768 115.872 250.077 120.711 248.658L143.689 241.927C148.545 240.503 153.114 244.854 151.726 249.809L129.668 328.244C127.552 335.813 137.838 340.329 141.974 333.567L143.467 331.116L266.5 90.0462C268.78 85.2521 264.397 80.013 259.221 80.7934L221.035 86.6547C216.119 87.3849 211.81 82.9277 213.18 78.0119L235.886 -1.25799C237.262 -6.19799 232.929 -10.6683 228.009 -9.88486Z" fill="url(#paint1_linear_17_39)"/>
  </g>
  <defs>
    <linearGradient id="paint0_linear_17_39" x1="6.00017" y1="32.9999" x2="235" y2="344" gradientUnits="userSpaceOnUse">
      <stop stop-color="#41D1FF"/>
      <stop offset="1" stop-color="#BD34FE"/>
    </linearGradient>
    <linearGradient id="paint1_linear_17_39" x1="194.651" y1="8.81818" x2="236.076" y2="292.989" gradientUnits="userSpaceOnUse">
      <stop stop-color="#FFEA83"/>
      <stop offset="0.0833333" stop-color="#FFDD35"/>
      <stop offset="1" stop-color="#FFA800"/>
    </linearGradient>
    <clipPath id="clip0_17_39">
      <rect width="410" height="404" fill="white"/>
    </clipPath>
  </defs>
</svg>
